<svg width="85" height="99" viewBox="0 0 85 99" fill="none" xmlns="http://www.w3.org/2000/svg">
<path d="M42.5 82.5C19.0187 82.5 0 78.7875 0 74.25V90.75C0 95.2875 19.0187 99 42.5 99C65.9813 99 85 95.2875 85 90.75V74.25C85 78.7875 65.9813 82.5 42.5 82.5ZM42.5 49.5C19.0187 49.5 0 45.7875 0 41.25V57.75C0 62.2875 19.0187 66 42.5 66C65.9813 66 85 62.2875 85 57.75V41.25C85 45.7875 65.9813 49.5 42.5 49.5ZM42.5 0C19.0273 0 0 3.69187 0 8.25V24.75C0 29.2875 19.0187 33 42.5 33C65.9813 33 85 29.2875 85 24.75V8.25C85 3.69187 65.9727 0 42.5 0Z" fill="#FFCA28"/>
</svg>
