<svg width="85" height="108" viewBox="0 0 85 108" fill="none" xmlns="http://www.w3.org/2000/svg">
<path d="M46.3636 38.5714H77.2727L46.3636 7.71429V38.5714ZM10.625 0H54.0909L85 30.8571V97.2C85 103.163 80.24 108 74.375 108H10.625C4.75227 108 0 103.163 0 97.2V10.8C0 4.806 4.72909 0 10.625 0ZM11.5909 97.2H73.4091V54L53.125 75.6L42.5 64.8L11.5909 97.2ZM21.25 37.8C15.3773 37.8 10.625 42.6369 10.625 48.6C10.625 54.5631 15.385 59.4 21.25 59.4C27.1227 59.4 31.875 54.5631 31.875 48.6C31.875 42.6369 27.115 37.8 21.25 37.8Z" fill="#26A69A"/>
</svg>
