<svg width="85" height="68" viewBox="0 0 85 68" fill="none" xmlns="http://www.w3.org/2000/svg">
<path d="M51 68V59.5H63.75C64.9542 59.5 65.9635 59.0927 66.7781 58.2781C67.5927 57.4635 68 56.4542 68 55.25V46.75C68 44.0583 68.7792 41.6146 70.3375 39.4188C71.8958 37.2229 73.95 35.6646 76.5 34.7438V33.2563C73.95 32.3354 71.8958 30.7771 70.3375 28.5813C68.7792 26.3854 68 23.9417 68 21.25V12.75C68 11.5458 67.5927 10.5365 66.7781 9.72188C65.9635 8.90729 64.9542 8.5 63.75 8.5H51V0H63.75C67.2917 0 70.3021 1.23958 72.7813 3.71875C75.2604 6.19792 76.5 9.20833 76.5 12.75V21.25C76.5 22.4542 76.9073 23.4635 77.7219 24.2781C78.5365 25.0927 79.5458 25.5 80.75 25.5H85V42.5H80.75C79.5458 42.5 78.5365 42.9073 77.7219 43.7219C76.9073 44.5365 76.5 45.5458 76.5 46.75V55.25C76.5 58.7917 75.2604 61.8021 72.7813 64.2813C70.3021 66.7604 67.2917 68 63.75 68H51ZM21.25 68C17.7083 68 14.6979 66.7604 12.2188 64.2813C9.73958 61.8021 8.5 58.7917 8.5 55.25V46.75C8.5 45.5458 8.09271 44.5365 7.27813 43.7219C6.46354 42.9073 5.45417 42.5 4.25 42.5H0V25.5H4.25C5.45417 25.5 6.46354 25.0927 7.27813 24.2781C8.09271 23.4635 8.5 22.4542 8.5 21.25V12.75C8.5 9.20833 9.73958 6.19792 12.2188 3.71875C14.6979 1.23958 17.7083 0 21.25 0H34V8.5H21.25C20.0458 8.5 19.0365 8.90729 18.2219 9.72188C17.4073 10.5365 17 11.5458 17 12.75V21.25C17 23.9417 16.2208 26.3854 14.6625 28.5813C13.1042 30.7771 11.05 32.3354 8.5 33.2563V34.7438C11.05 35.6646 13.1042 37.2229 14.6625 39.4188C16.2208 41.6146 17 44.0583 17 46.75V55.25C17 56.4542 17.4073 57.4635 18.2219 58.2781C19.0365 59.0927 20.0458 59.5 21.25 59.5H34V68H21.25Z" fill="#F9A825"/>
</svg>
