<svg width="85" height="85" viewBox="0 0 85 85" fill="none" xmlns="http://www.w3.org/2000/svg">
<path d="M82.4742 36.525C81.7021 35.7209 80.7741 35.0827 79.7468 34.6495C78.7196 34.2162 77.6148 33.9971 76.4999 34.0055C75.4067 33.9663 74.3179 34.1628 73.3074 34.5819C72.297 35.0009 71.3886 35.6326 70.644 36.434H57.1563L66.5003 27.0905C67.6378 27.0993 68.7659 26.8826 69.8192 26.4527C70.8725 26.0228 71.8301 25.3884 72.6366 24.5862C73.4431 23.7839 74.0826 22.8297 74.518 21.7788C74.9534 20.7278 75.1762 19.601 75.1733 18.4634C75.2004 17.3453 74.9894 16.2342 74.5545 15.2037C74.1196 14.1733 73.4706 13.247 72.6506 12.4864C71.8391 11.705 70.8813 11.0915 69.8321 10.681C68.7829 10.2705 67.663 10.0712 66.5367 10.0944C65.4303 10.0641 64.3294 10.2607 63.3019 10.6721C62.2744 11.0835 61.3421 11.7009 60.5624 12.4864C59.7318 13.2049 59.0775 14.1047 58.65 15.1164C58.2226 16.128 58.0335 17.2244 58.0974 18.3208L48.5713 27.8433V14.3533C49.3727 13.6088 50.0044 12.7004 50.4235 11.69C50.8425 10.6796 51.0391 9.59081 50.9998 8.49766C51.0074 7.38245 50.7874 6.27742 50.3531 5.2502C49.9188 4.22299 49.2794 3.29521 48.4741 2.52366C47.6975 1.72506 46.7687 1.09027 45.7426 0.656801C44.7164 0.223335 43.6138 0 42.4998 0C41.3858 0 40.2832 0.223335 39.257 0.656801C38.2309 1.09027 37.3021 1.72506 36.5255 2.52366C35.7202 3.29521 35.0808 4.22299 34.6465 5.2502C34.2122 6.27742 33.9922 7.38245 33.9998 8.49766C33.9601 9.59131 34.1564 10.6807 34.5755 11.6917C34.9946 12.7026 35.6265 13.6115 36.4283 14.3563V27.8433L26.9022 18.3177C26.9661 17.2214 26.777 16.125 26.3496 15.1133C25.9221 14.1017 25.2678 13.2019 24.4372 12.4834C23.6586 11.6964 22.7264 11.078 21.6987 10.6665C20.6709 10.255 19.5695 10.0592 18.4629 10.0913C16.1886 10.0479 13.9899 10.9081 12.349 12.4834C11.529 13.244 10.88 14.1703 10.4451 15.2007C10.0102 16.2311 9.79923 17.3423 9.82628 18.4604C9.80674 19.5973 10.0205 20.7261 10.4544 21.7771C10.8883 22.8281 11.5331 23.779 12.349 24.571C13.1526 25.382 14.1113 26.0228 15.168 26.4551C16.2247 26.8875 17.3577 27.1026 18.4993 27.0875L27.8433 36.4309H14.3556C13.611 35.6296 12.7026 34.9979 11.6922 34.5788C10.6817 34.1598 9.59287 33.9632 8.49967 34.0025C7.38462 33.9945 6.27966 34.2141 5.25241 34.6478C4.22515 35.0816 3.29721 35.7203 2.52536 36.525C1.72625 37.3016 1.09102 38.2306 0.657259 39.257C0.223494 40.2834 0 41.3863 0 42.5006C0 43.6148 0.223494 44.7178 0.657259 45.7442C1.09102 46.7705 1.72625 47.6995 2.52536 48.4761C3.29695 49.2813 4.22478 49.9207 5.25204 50.355C6.27931 50.7892 7.3844 51.0093 8.49967 51.0017C9.59287 51.0409 10.6817 50.8444 11.6922 50.4253C12.7026 50.0063 13.611 49.3746 14.3556 48.5732H27.8433L18.4993 57.9137C17.3618 57.9048 16.2337 58.1216 15.1804 58.5515C14.1271 58.9813 13.1695 59.6157 12.363 60.418C11.5565 61.2203 10.917 62.1744 10.4816 63.2254C10.0462 64.2763 9.82344 65.4032 9.82628 66.5407C9.79923 67.6589 10.0102 68.77 10.4451 69.8004C10.88 70.8309 11.529 71.7571 12.349 72.5178C13.1605 73.2991 14.1183 73.9127 15.1675 74.3231C16.2167 74.7336 17.3365 74.933 18.4629 74.9098C19.5693 74.9401 20.6702 74.7435 21.6977 74.3321C22.7252 73.9207 23.6575 73.3032 24.4372 72.5178C25.2678 71.7993 25.9221 70.8994 26.3496 69.8878C26.777 68.8761 26.9661 67.7798 26.9022 66.6834L36.4283 57.1578V70.6479C35.6269 71.3924 34.9952 72.3007 34.5761 73.3111C34.1571 74.3215 33.9605 75.4103 33.9998 76.5035C33.9907 78.1845 34.4832 79.8299 35.4143 81.2296C36.3453 82.6292 37.6727 83.7194 39.2266 84.3607C40.7806 85.0021 42.4905 85.1655 44.1377 84.83C45.785 84.4945 47.2948 83.6754 48.4741 82.4775C49.2794 81.7059 49.9188 80.7781 50.3531 79.7509C50.7874 78.7237 51.0074 77.6187 50.9998 76.5035C51.0391 75.4103 50.8425 74.3215 50.4235 73.3111C50.0044 72.3007 49.3727 71.3924 48.5713 70.6479V57.1578L58.0974 66.6834C58.0335 67.7798 58.2226 68.8761 58.65 69.8878C59.0775 70.8994 59.7318 71.7993 60.5624 72.5178C61.341 73.3047 62.2732 73.9231 63.3009 74.3346C64.3287 74.7461 65.4301 74.9419 66.5367 74.9098C68.811 74.9533 71.0097 74.093 72.6506 72.5178C73.4706 71.7571 74.1196 70.8309 74.5545 69.8004C74.9894 68.77 75.2004 67.6589 75.1733 66.5407C75.1929 65.4039 74.9791 64.2751 74.5452 63.2241C74.1113 62.1731 73.4665 61.2222 72.6506 60.4301C71.847 59.6191 70.8883 58.9783 69.8316 58.546C68.7749 58.1136 67.6419 57.8986 66.5003 57.9137L57.1563 48.5763H70.644C71.3889 49.378 72.2978 50.01 73.3088 50.429C74.3198 50.8481 75.4093 51.0444 76.503 51.0047C78.1844 51.0138 79.8303 50.5211 81.2302 49.5897C82.6301 48.6583 83.7204 47.3305 84.3615 45.7761C85.0027 44.2218 85.1655 42.5115 84.8293 40.8641C84.4931 39.2167 83.6732 37.707 82.4742 36.5281V36.525Z" fill="#FFB300"/>
</svg>
