<svg width="85" height="61" viewBox="0 0 85 61" fill="none" xmlns="http://www.w3.org/2000/svg">
<path d="M66.7857 0L72.8571 18.3H60.7143L54.6429 0H45.5357L51.6071 18.3H39.4643L33.3929 0H24.2857L30.3571 18.3H18.2143L12.1429 0H9.10714C6.69178 0 4.37534 0.964015 2.66742 2.67997C0.9595 4.39593 0 6.72327 0 9.15V51.85C0 54.2767 0.9595 56.6041 2.66742 58.32C4.37534 60.036 6.69178 61 9.10714 61H75.8929C78.3082 61 80.6247 60.036 82.3326 58.32C84.0405 56.6041 85 54.2767 85 51.85V0H66.7857Z" fill="#FF9800"/>
</svg>
