<svg width="85" height="106" viewBox="0 0 85 106" fill="none" xmlns="http://www.w3.org/2000/svg">
<path d="M47.8125 37.1H77.0312L47.8125 7.95V37.1ZM10.625 0H53.125L85 31.8V95.4C85 98.2113 83.8806 100.907 81.888 102.895C79.8954 104.883 77.1929 106 74.375 106H10.625C7.80707 106 5.10456 104.883 3.11199 102.895C1.11942 100.907 0 98.2113 0 95.4V10.6C0 4.717 4.72812 0 10.625 0ZM11.2625 71.55L31.1312 91.372L38.675 83.899L26.2969 71.55L38.675 59.201L31.1312 51.728L11.2625 71.55ZM70.55 71.55L50.6812 51.728L43.1375 59.201L55.5156 71.55L43.1375 83.899L50.6812 91.372L70.55 71.55Z" fill="#8BC34A"/>
</svg>
