<svg id="vector" xmlns="http://www.w3.org/2000/svg" width="512" height="508.78" viewBox="0 0 135.47 134.61"><path fill="#3ddc84" d="m51.38,134.3c-2.29,-0.54 -4.2,-1.8 -6.88,-4.53 -4.47,-4.56 -8.11,-6.46 -14.42,-7.54 -6.55,-1.12 -9.46,-3.54 -11.21,-9.31 -2.16,-7.13 -4.42,-10.54 -9.37,-14.18 -5.62,-4.13 -7.07,-7.77 -5.69,-14.37 1.27,-6.11 0.78,-10.45 -1.8,-16.04 -3.08,-6.66 -2.7,-10.23 1.68,-15.69 4.01,-5.01 5.27,-8.31 5.87,-15.43 0.61,-7.18 2.62,-10.13 8.54,-12.51 4.94,-1.99 9.17,-5.44 11.51,-9.41 2.71,-4.58 3.11,-5.11 4.78,-6.35 2.71,-2.01 4.9,-2.57 9.07,-2.31 7.25,0.45 11.13,-0.41 16,-3.56 6.35,-4.11 10.19,-4.11 16.54,0 4.87,3.15 8.75,4.01 16,3.56 6.85,-0.43 9.71,1.36 13.88,8.7 2.07,3.64 6.3,7.18 10.93,9.15 6.6,2.81 8.51,5.37 9,12.02 0.53,7.21 2.01,11.23 5.95,16.13 4.39,5.45 4.77,9.01 1.68,15.69 -2.58,5.59 -3.07,9.93 -1.8,16.04 1.37,6.6 -0.07,10.24 -5.69,14.37 -4.96,3.64 -7.21,7.05 -9.37,14.18 -1.75,5.78 -4.66,8.19 -11.21,9.31 -6.32,1.08 -9.96,2.99 -14.42,7.55 -4.94,5.06 -8.48,5.9 -15.39,3.63 -5.65,-1.86 -10,-1.86 -15.63,-0.03 -3.94,1.29 -6.04,1.51 -8.57,0.91z" stroke-width="0.3" id="path_0"/><path fill="#ffffff" d="m68.99,103.82 l1.31,-3.17c33.47,-3.33 34.39,-29.56 13.26,-38.8l-5.97,-1.26 5.66,-11.46 5.49,-10.69 -9.03,-0.3l-10.15,0l0,-2.07 0,-2.07L82.23,34l14.5,0.15 -6.35,12.26 -5.17,10.93 0.44,0.47 1.62,0.47c31.69,6.78 17.98,57.12 -18.27,45.54zM50.86,71.29l0,-33.15l-7.84,0 -7.84,0l0,-2.07 0,-2.07l9.47,0 9.47,0l0,35.81 0,35.22L52.49,105.03 50.86,105.03Z" stroke-width="0.3" id="path_1"/><path fill="#073042" d="m67.31,108.02 l1.69,-4.19c17.15,5.36 33.17,-5.44 33.17,-22.56 0,-11.48 -8.68,-20.92 -18.39,-23.46l5.7,-11.63 5.79,-11.65L82.46,34.52 69.57,34.52l0,-2.37 0,-2.29L86.22,29.85 102.95,29.85l-6.36,12.72 -6.36,12.72c11.23,5.65 16.53,15.69 16.53,26.06 0,19.95 -19.85,34.17 -39.46,26.66zM46.13,73.8l0,-31.22l-5.48,0 -5.48,0l0,-2.37 0,-2.37l7.84,0 7.84,0l0,33.59 0,33.59l-2.37,0 -2.37,0zM54.12,69.81L54.12,34.59L44.65,34.59 35.18,34.59l0,-2.37 0,-2.37L47.02,29.85 58.85,29.85l0,37.59 0,37.59l-2.37,0 -2.37,0zM70.31,100.65 L71.95,96.2c11.36,3.89 21.78,-3.97 21.91,-14.54 0,-11.58 -8.93,-16.25 -17.05,-16.82l-5.22,-0.64 5.3,-10.93 5.34,-10.68 -6.29,-0.08 -6.37,-0.08l0,-2.29 0,-2.29l10.14,0 10.22,0l-5.62,11.24 -5.62,11.24c11.97,1.75 20.09,10.16 20.09,20.88 0,14.49 -13.9,24.45 -28.47,19.45z" stroke-width="0.3" id="path_2"/></svg>