<svg id="vector" xmlns="http://www.w3.org/2000/svg" width="512" height="512" viewBox="0 0 512 512"><path fill="#083042" d="M256,256m-256,0a256,256 0,1 1,512 0a256,256 0,1 1,-512 0" id="path_0"/><path fill="#F86734" d="M416.23,236.62h-10.67c-1.47,0 -2.65,-1.19 -2.65,-2.65v-9.85c0,-1.47 1.19,-2.65 2.65,-2.65h23.37c1.47,0 2.65,1.19 2.65,2.65v66.9c0,1.47 -1.19,2.65 -2.65,2.65h-10.05c-1.47,0 -2.65,-1.19 -2.65,-2.65V236.62z" id="path_1"/><path fill="#F86734" d="M455.51,236.62H444.84c-1.47,0 -2.65,-1.19 -2.65,-2.65v-9.85c0,-1.47 1.19,-2.65 2.65,-2.65h23.37c1.47,0 2.65,1.19 2.65,2.65v66.9c0,1.47 -1.19,2.65 -2.65,2.65h-10.05c-1.47,0 -2.65,-1.19 -2.65,-2.65V236.62z" id="path_2"/><path fill="#D6F0FF" d="M364.12,404.59m-4.34,0a4.34,4.34 0,1 1,8.68 0a4.34,4.34 0,1 1,-8.68 0" id="path_3"/><path fill="#D6F0FF" d="M275.46,438.37m-4.84,0a4.84,4.84 0,1 1,9.68 0a4.84,4.84 0,1 1,-9.68 0" id="path_4"/><path fill="#D6F0FF" d="M184.52,424.18m-5.36,0a5.36,5.36 0,1 1,10.72 0a5.36,5.36 0,1 1,-10.72 0" id="path_5"/><path fill="#D6F0FF" d="M110.42,365.08m-5.89,0a5.89,5.89 0,1 1,11.79 0a5.89,5.89 0,1 1,-11.79 0" id="path_6"/><path fill="#D6F0FF" d="M75.94,276.6m-6.43,0a6.43,6.43 0,1 1,12.87 0a6.43,6.43 0,1 1,-12.87 0" id="path_7"/><path fill="#D6F0FF" d="M89.48,185.55m-6.98,0a6.98,6.98 0,1 1,13.97 0a6.98,6.98 0,1 1,-13.97 0" id="path_8"/><path fill="#D6F0FF" d="M147.97,111.08m-7.54,0a7.54,7.54 0,1 1,15.08 0a7.54,7.54 0,1 1,-15.08 0" id="path_9"/><path fill="#D6F0FF" d="M236.63,74.8m-8.1,0a8.1,8.1 0,1 1,16.19 0a8.1,8.1 0,1 1,-16.19 0" id="path_10"/><path fill="#D6F0FF" d="M327.09,86.96m-8.66,0a8.66,8.66 0,1 1,17.32 0a8.66,8.66 0,1 1,-17.32 0" id="path_11"/><path fill="#D6F0FF" d="M401.05,146.19m-9.22,0a9.22,9.22 0,1 1,18.45 0a9.22,9.22 0,1 1,-18.45 0" id="path_12"/><path fill="#3DDB85" d="M255.45,257.57m-128.11,0a128.11,128.11 0,1 1,256.22 0a128.11,128.11 0,1 1,-256.22 0" id="path_13"/><path fill="#FFFFFF" d="M339.23,257.57m-21.48,0a21.48,21.48 0,1 1,42.95 0a21.48,21.48 0,1 1,-42.95 0" id="path_14"/></svg>