<svg width="1786" height="1786" viewBox="0 0 1786 1786" fill="none" xmlns="http://www.w3.org/2000/svg">
<path d="M893 1527.87C1243.63 1527.87 1527.87 1243.63 1527.87 893C1527.87 542.373 1243.63 258.133 893 258.133C542.373 258.133 258.133 542.373 258.133 893C258.133 1243.63 542.373 1527.87 893 1527.87Z" fill="#0D242F"/>
<path d="M1509.49 958.426L1542.77 841.446L1488.56 732.574L1509.49 958.426Z" fill="#0D242F"/>
<path d="M1477.34 611.475L1387.46 529.539L1488.56 732.574L1477.34 611.475Z" fill="#0D242F"/>
<path d="M1129.97 294.8H1008.34L1219.85 376.734L1129.97 294.8Z" fill="#0D242F"/>
<path d="M1333.25 420.669L1219.84 376.734L1387.46 529.539L1333.25 420.669Z" fill="#0D242F"/>
<path d="M894.939 250.867L781.535 294.8H1008.34L894.939 250.867Z" fill="#0D242F"/>
<path d="M775.389 1541.01L894.943 1518.66L671.99 1476.98L775.389 1541.01Z" fill="#0D242F"/>
<path d="M1014.49 1541.01L1117.89 1476.98L894.939 1518.66L1014.49 1541.01Z" fill="#0D242F"/>
<path d="M1237.44 1454.64L1310.74 1357.58L1117.89 1476.98L1237.44 1454.64Z" fill="#0D242F"/>
<path d="M1414.14 1293.56L1447.42 1176.58L1310.74 1357.58L1414.14 1293.56Z" fill="#0D242F"/>
<path d="M1520.71 1079.53L1509.49 958.426L1447.42 1176.58L1520.71 1079.53Z" fill="#0D242F"/>
<path d="M552.436 1454.64L671.986 1476.98L479.14 1357.58L552.436 1454.64Z" fill="#0D242F"/>
<path d="M247.106 841.446L280.389 958.426L301.316 732.574L247.106 841.446Z" fill="#0D242F"/>
<path d="M456.626 420.669L402.415 529.539L570.034 376.734L456.626 420.669Z" fill="#0D242F"/>
<path d="M375.737 1293.56L479.14 1357.58L342.458 1176.58L375.737 1293.56Z" fill="#0D242F"/>
<path d="M312.534 611.475L301.314 732.574L402.415 529.539L312.534 611.475Z" fill="#0D242F"/>
<path d="M659.913 294.8L570.034 376.734L781.535 294.8H659.913Z" fill="#0D242F"/>
<path d="M269.167 1079.53L342.457 1176.58L280.387 958.426L269.167 1079.53Z" fill="#0D242F"/>
<path d="M1488.56 732.574L1542.78 841.446L1581.26 706.202L1477.35 611.475L1488.56 732.574Z" fill="#66245A"/>
<path d="M1008.34 294.801H1129.97L1026.06 200.073L894.939 250.868L1008.34 294.801Z" fill="#66245A"/>
<path d="M1219.85 376.738L1333.26 420.669L1270.58 294.801H1129.97L1219.85 376.738Z" fill="#66245A"/>
<path d="M1387.46 529.539L1477.34 611.475L1464.37 471.466L1333.25 420.669L1387.46 529.539Z" fill="#66245A"/>
<path d="M1310.74 1357.58L1237.44 1454.64L1375.66 1428.8L1414.14 1293.56L1310.74 1357.58Z" fill="#66245A"/>
<path d="M894.943 1518.66L775.389 1541.01L894.943 1615.03L1014.49 1541.01L894.943 1518.66Z" fill="#66245A"/>
<path d="M781.536 294.801L894.94 250.868L763.822 200.073L659.913 294.801H781.536Z" fill="#66245A"/>
<path d="M671.983 1476.98L552.432 1454.64L637.173 1566.85L775.386 1541.01L671.983 1476.98Z" fill="#66245A"/>
<path d="M1447.42 1176.58L1414.14 1293.56L1533.69 1219.53L1520.71 1079.53L1447.42 1176.58Z" fill="#66245A"/>
<path d="M1509.49 958.426L1520.71 1079.53L1605.45 967.318L1542.78 841.447L1509.49 958.426Z" fill="#66245A"/>
<path d="M1117.9 1476.98L1014.49 1541.01L1152.71 1566.85L1237.45 1454.64L1117.9 1476.98Z" fill="#66245A"/>
<path d="M301.317 732.574L312.538 611.475L208.625 706.202L247.107 841.446L301.317 732.574Z" fill="#66245A"/>
<path d="M402.419 529.539L456.627 420.669L325.513 471.466L312.539 611.475L402.419 529.539Z" fill="#66245A"/>
<path d="M570.034 376.738L659.913 294.801H519.304L456.626 420.669L570.034 376.738Z" fill="#66245A"/>
<path d="M342.46 1176.58L269.169 1079.53L256.194 1219.53L375.74 1293.56L342.46 1176.58Z" fill="#66245A"/>
<path d="M479.143 1357.58L375.74 1293.56L414.219 1428.8L552.436 1454.64L479.143 1357.58Z" fill="#66245A"/>
<path d="M280.388 958.426L247.106 841.447L184.429 967.318L269.168 1079.53L280.388 958.426Z" fill="#66245A"/>
<path d="M1464.37 471.466L1454.57 365.722C1450.85 325.538 1417.13 294.801 1376.78 294.801H1270.58L1333.25 420.669L1464.37 471.466H1464.37Z" fill="#B31F7F"/>
<path d="M1581.26 706.202L1610.32 604.058C1621.36 565.244 1601.03 524.404 1563.4 509.823L1464.37 471.462L1477.34 611.471L1581.26 706.202Z" fill="#B31F7F"/>
<path d="M1270.58 294.801L1223.24 199.739C1205.26 163.615 1162.71 147.132 1125.08 161.711L1026.06 200.073L1129.97 294.801H1270.58H1270.58Z" fill="#B31F7F"/>
<path d="M1026.06 200.073L947.578 128.527C917.756 101.34 872.133 101.34 842.312 128.527L763.829 200.073L894.947 250.869L1026.06 200.073H1026.06Z" fill="#B31F7F"/>
<path d="M1152.71 1566.85L1257.1 1586.36C1296.77 1593.77 1335.56 1569.76 1346.6 1530.94L1375.66 1428.8L1237.45 1454.64L1152.71 1566.85L1152.71 1566.85Z" fill="#B31F7F"/>
<path d="M894.943 1615.03L985.23 1670.94C1019.54 1692.19 1064.39 1683.8 1088.71 1651.6L1152.71 1566.85L1014.49 1541.01L894.939 1615.03H894.943Z" fill="#B31F7F"/>
<path d="M637.177 1566.85L701.176 1651.6C725.496 1683.8 770.345 1692.19 804.652 1670.94L894.943 1615.03L775.393 1541.01L637.177 1566.85Z" fill="#B31F7F"/>
<path d="M1659.74 777.751L1581.26 706.203L1542.77 841.447L1605.45 967.314L1669.45 882.567C1693.77 850.359 1689.56 804.935 1659.73 777.747L1659.74 777.751Z" fill="#B31F7F"/>
<path d="M1533.69 1219.53L1623.98 1163.63C1658.29 1142.38 1670.78 1098.5 1652.79 1062.38L1605.45 967.318L1520.71 1079.53L1533.69 1219.53Z" fill="#B31F7F"/>
<path d="M1375.66 1428.8L1480.05 1409.29C1519.72 1401.87 1547.21 1365.46 1543.49 1325.28L1533.69 1219.53L1414.14 1293.56L1375.66 1428.8L1375.66 1428.8Z" fill="#B31F7F"/>
<path d="M414.223 1428.8L443.288 1530.94C454.331 1569.76 493.121 1593.77 532.786 1586.36L637.177 1566.85L552.443 1454.63L414.227 1428.8L414.223 1428.8Z" fill="#B31F7F"/>
<path d="M325.513 471.466L226.485 509.826C188.854 524.404 168.52 565.245 179.564 604.062L208.627 706.206L312.539 611.475L325.513 471.466Z" fill="#B31F7F"/>
<path d="M519.304 294.801H413.107C372.751 294.801 339.036 325.538 335.31 365.722L325.51 471.466L456.626 420.669L519.304 294.801Z" fill="#B31F7F"/>
<path d="M763.822 200.073L664.8 161.711C627.169 147.132 584.625 163.612 566.64 199.739L519.304 294.801H659.913L763.822 200.073Z" fill="#B31F7F"/>
<path d="M208.626 706.203L130.144 777.751C100.321 804.935 96.1101 850.363 120.43 882.57L184.428 967.318L247.104 841.45L208.623 706.206L208.626 706.203Z" fill="#B31F7F"/>
<path d="M256.194 1219.53L246.394 1325.28C242.671 1365.47 270.162 1401.87 309.833 1409.29L414.219 1428.8L375.74 1293.56L256.19 1219.54L256.194 1219.53Z" fill="#B31F7F"/>
<path d="M184.432 967.318L137.097 1062.38C119.11 1098.5 131.594 1142.38 165.906 1163.63L256.196 1219.53L269.17 1079.53L184.432 967.318Z" fill="#B31F7F"/>
<path d="M541.622 791.477C544.175 788.924 545.456 787.643 546.952 787.228C547.985 786.942 549.076 786.942 550.109 787.228C551.605 787.643 552.886 788.924 555.439 791.477C557.996 794.034 559.273 795.311 559.688 796.807C559.974 797.84 559.974 798.931 559.688 799.967C559.273 801.464 557.996 802.741 555.439 805.294C552.886 807.851 551.605 809.128 550.109 809.543C549.076 809.832 547.985 809.832 546.952 809.543C545.456 809.128 544.175 807.851 541.622 805.294C539.065 802.741 537.788 801.464 537.373 799.967C537.087 798.931 537.087 797.84 537.373 796.807C537.788 795.311 539.065 794.034 541.622 791.477Z" fill="#E08DE9"/>
<path d="M454.956 887C457.513 884.443 458.789 883.166 460.286 882.751C461.318 882.462 462.41 882.462 463.446 882.751C464.943 883.166 466.219 884.443 468.773 887C471.33 889.553 472.606 890.834 473.022 892.33C473.311 893.363 473.311 894.455 473.022 895.487C472.606 896.984 471.33 898.26 468.773 900.817C466.219 903.374 464.943 904.651 463.446 905.066C462.41 905.352 461.318 905.352 460.286 905.066C458.789 904.651 457.513 903.374 454.956 900.817C452.402 898.26 451.122 896.984 450.707 895.487C450.421 894.455 450.421 893.363 450.707 892.33C451.122 890.834 452.402 889.553 454.956 887Z" fill="#E08DE9"/>
<path d="M990.361 373.525C992.915 370.972 994.191 369.695 995.688 369.277C996.724 368.991 997.816 368.991 998.848 369.277C1000.34 369.695 1001.62 370.972 1004.18 373.525C1006.73 376.082 1008.01 377.359 1008.43 378.855C1008.71 379.891 1008.71 380.983 1008.43 382.016C1008.01 383.512 1006.73 384.789 1004.18 387.346C1001.62 389.899 1000.34 391.179 998.848 391.595C997.816 391.881 996.724 391.881 995.688 391.595C994.191 391.179 992.915 389.899 990.361 387.346C987.805 384.789 986.528 383.512 986.113 382.016C985.823 380.983 985.823 379.891 986.113 378.855C986.528 377.359 987.805 376.082 990.361 373.525Z" fill="#E08DE9"/>
<path d="M1420.39 892.759C1422.25 890.9 1423.18 889.969 1424.27 889.669C1425.02 889.459 1425.81 889.459 1426.56 889.669C1427.65 889.969 1428.58 890.9 1430.44 892.759C1432.3 894.615 1433.23 895.546 1433.53 896.635C1433.74 897.385 1433.74 898.18 1433.53 898.93C1433.23 900.018 1432.3 900.95 1430.44 902.809C1428.58 904.665 1427.65 905.596 1426.56 905.896C1425.81 906.105 1425.02 906.105 1424.27 905.896C1423.18 905.596 1422.25 904.665 1420.39 902.809C1418.53 900.95 1417.6 900.018 1417.3 898.93C1417.09 898.18 1417.09 897.385 1417.3 896.635C1417.6 895.546 1418.53 894.615 1420.39 892.759Z" fill="#E08DE9"/>
<path d="M786.025 373.005C787.884 371.146 788.812 370.215 789.9 369.915C790.654 369.705 791.446 369.705 792.199 369.915C793.288 370.215 794.215 371.146 796.075 373.005C797.934 374.861 798.862 375.793 799.165 376.881C799.375 377.631 799.375 378.426 799.165 379.176C798.862 380.265 797.934 381.196 796.075 383.055C794.215 384.911 793.288 385.842 792.199 386.142C791.446 386.352 790.654 386.352 789.9 386.142C788.812 385.842 787.884 384.911 786.025 383.055C784.166 381.196 783.238 380.265 782.934 379.176C782.725 378.426 782.725 377.631 782.934 376.881C783.238 375.793 784.166 374.861 786.025 373.005Z" fill="#E08DE9"/>
<path d="M1236.64 1162.26C1238.5 1160.4 1239.42 1159.48 1240.51 1159.17C1241.26 1158.96 1242.06 1158.96 1242.81 1159.17C1243.9 1159.48 1244.83 1160.4 1246.69 1162.26C1248.54 1164.12 1249.47 1165.05 1249.77 1166.14C1249.98 1166.89 1249.98 1167.68 1249.77 1168.44C1249.47 1169.53 1248.54 1170.45 1246.69 1172.31C1244.83 1174.17 1243.9 1175.1 1242.81 1175.4C1242.06 1175.61 1241.26 1175.61 1240.51 1175.4C1239.42 1175.1 1238.5 1174.17 1236.64 1172.31C1234.78 1170.45 1233.85 1169.53 1233.55 1168.44C1233.34 1167.68 1233.34 1166.89 1233.55 1166.14C1233.85 1165.05 1234.78 1164.12 1236.64 1162.26Z" fill="#E08DE9"/>
<path d="M405.188 1048.56C407.048 1046.7 407.975 1045.77 409.064 1045.47C409.817 1045.26 410.613 1045.26 411.363 1045.47C412.451 1045.77 413.379 1046.7 415.238 1048.56C417.097 1050.42 418.025 1051.35 418.329 1052.44C418.538 1053.19 418.538 1053.98 418.329 1054.73C418.025 1055.82 417.097 1056.75 415.238 1058.61C413.379 1060.47 412.451 1061.4 411.363 1061.7C410.613 1061.91 409.817 1061.91 409.064 1061.7C407.975 1061.4 407.048 1060.47 405.188 1058.61C403.329 1056.75 402.401 1055.82 402.098 1054.73C401.892 1053.98 401.892 1053.19 402.098 1052.44C402.401 1051.35 403.329 1050.42 405.188 1048.56Z" fill="#E08DE9"/>
<path d="M1206.64 1065.27C1208.5 1063.41 1209.43 1062.48 1210.51 1062.17C1211.27 1061.97 1212.06 1061.97 1212.81 1062.17C1213.9 1062.48 1214.83 1063.41 1216.69 1065.27C1218.55 1067.12 1219.48 1068.05 1219.78 1069.14C1219.99 1069.89 1219.99 1070.69 1219.78 1071.44C1219.48 1072.53 1218.55 1073.46 1216.69 1075.32C1214.83 1077.17 1213.9 1078.1 1212.81 1078.41C1212.06 1078.62 1211.27 1078.62 1210.51 1078.41C1209.43 1078.1 1208.5 1077.17 1206.64 1075.32C1204.78 1073.46 1203.85 1072.53 1203.55 1071.44C1203.34 1070.69 1203.34 1069.89 1203.55 1069.14C1203.85 1068.05 1204.78 1067.12 1206.64 1065.27Z" fill="#E08DE9"/>
<path d="M725.608 1178.8C727.464 1176.94 728.395 1176.01 729.483 1175.71C730.233 1175.5 731.029 1175.5 731.779 1175.71C732.867 1176.01 733.798 1176.94 735.658 1178.8C737.513 1180.65 738.445 1181.59 738.745 1182.67C738.954 1183.42 738.954 1184.22 738.745 1184.97C738.445 1186.06 737.513 1186.99 735.658 1188.85C733.798 1190.7 732.867 1191.64 731.779 1191.94C731.029 1192.14 730.233 1192.14 729.483 1191.94C728.395 1191.64 727.464 1190.7 725.608 1188.85C723.749 1186.99 722.821 1186.06 722.517 1184.97C722.308 1184.22 722.308 1183.42 722.517 1182.67C722.821 1181.59 723.749 1180.65 725.608 1178.8Z" fill="#E08DE9"/>
<path d="M1307.97 755.597C1310.52 753.043 1311.8 751.763 1313.3 751.348C1314.33 751.062 1315.42 751.062 1316.46 751.348C1317.95 751.763 1319.23 753.043 1321.79 755.597C1324.34 758.153 1325.62 759.43 1326.04 760.927C1326.32 761.959 1326.32 763.055 1326.04 764.087C1325.62 765.584 1324.34 766.86 1321.79 769.417C1319.23 771.971 1317.95 773.247 1316.46 773.666C1315.42 773.952 1314.33 773.952 1313.3 773.666C1311.8 773.247 1310.52 771.971 1307.97 769.417C1305.41 766.86 1304.13 765.584 1303.72 764.087C1303.43 763.055 1303.43 761.959 1303.72 760.927C1304.13 759.43 1305.41 758.153 1307.97 755.597Z" fill="#E08DE9"/>
<path d="M356.781 889.316C359.335 886.759 360.615 885.483 362.111 885.068C363.144 884.782 364.236 884.782 365.268 885.068C366.765 885.483 368.041 886.759 370.598 889.316C373.155 891.87 374.432 893.15 374.847 894.646C375.133 895.679 375.133 896.771 374.847 897.803C374.432 899.3 373.155 900.576 370.598 903.133C368.041 905.69 366.765 906.967 365.268 907.382C364.236 907.668 363.144 907.668 362.111 907.382C360.615 906.967 359.335 905.69 356.781 903.133C354.224 900.576 352.948 899.3 352.533 897.803C352.243 896.771 352.243 895.679 352.533 894.646C352.948 893.15 354.224 891.87 356.781 889.316Z" fill="#E08DE9"/>
<path d="M534.903 1123.94C538.618 1120.22 540.478 1118.36 542.654 1117.76C544.158 1117.34 545.745 1117.34 547.248 1117.76C549.425 1118.36 551.284 1120.22 555.003 1123.94C558.718 1127.66 560.577 1129.52 561.181 1131.69C561.599 1133.2 561.599 1134.78 561.181 1136.29C560.577 1138.46 558.718 1140.32 555.003 1144.04C551.284 1147.76 549.425 1149.62 547.248 1150.22C545.745 1150.63 544.158 1150.63 542.654 1150.22C540.478 1149.62 538.618 1147.76 534.903 1144.04C531.185 1140.32 529.326 1138.46 528.722 1136.29C528.307 1134.78 528.307 1133.2 528.722 1131.69C529.326 1129.52 531.185 1127.66 534.903 1123.94Z" fill="#E08DE9"/>
<path d="M408.436 650.655C412.151 646.937 414.01 645.078 416.187 644.474C417.69 644.056 419.277 644.056 420.781 644.474C422.958 645.078 424.817 646.937 428.535 650.655C432.25 654.37 434.11 656.23 434.713 658.406C435.132 659.91 435.132 661.497 434.713 663C434.11 665.177 432.25 667.036 428.535 670.751C424.817 674.47 422.958 676.329 420.781 676.933C419.277 677.351 417.69 677.351 416.187 676.933C414.01 676.329 412.151 674.47 408.436 670.751C404.717 667.036 402.862 665.177 402.255 663C401.84 661.497 401.84 659.91 402.255 658.406C402.862 656.23 404.717 654.37 408.436 650.655Z" fill="#E08DE9"/>
<path d="M1389.65 780.89C1393.37 777.175 1395.23 775.316 1397.4 774.712C1398.91 774.294 1400.5 774.294 1402 774.712C1404.17 775.316 1406.03 777.175 1409.75 780.89C1413.47 784.609 1415.32 786.468 1415.93 788.645C1416.35 790.148 1416.35 791.735 1415.93 793.239C1415.32 795.415 1413.47 797.275 1409.75 800.99C1406.03 804.708 1404.17 806.567 1402 807.171C1400.5 807.586 1398.91 807.586 1397.4 807.171C1395.23 806.567 1393.37 804.708 1389.65 800.99C1385.93 797.275 1384.08 795.415 1383.47 793.239C1383.05 791.735 1383.05 790.148 1383.47 788.645C1384.08 786.468 1385.93 784.609 1389.65 780.89Z" fill="#E08DE9"/>
<path d="M879.895 355.32C883.613 351.605 885.472 349.745 887.649 349.142C889.149 348.724 890.74 348.724 892.243 349.142C894.42 349.745 896.276 351.605 899.994 355.32C903.713 359.038 905.568 360.897 906.175 363.074C906.59 364.577 906.59 366.165 906.175 367.668C905.568 369.845 903.713 371.704 899.994 375.419C896.276 379.138 894.42 380.997 892.243 381.6C890.74 382.015 889.149 382.015 887.649 381.6C885.472 380.997 883.613 379.138 879.895 375.419C876.179 371.704 874.32 369.845 873.717 367.668C873.298 366.165 873.298 364.577 873.717 363.074C874.32 360.897 876.179 359.038 879.895 355.32Z" fill="#E08DE9"/>
<path d="M1057.36 1332.04C1061.08 1328.32 1062.94 1326.46 1065.12 1325.86C1066.62 1325.44 1068.21 1325.44 1069.71 1325.86C1071.89 1326.46 1073.75 1328.32 1077.46 1332.04C1081.18 1335.76 1083.04 1337.62 1083.65 1339.79C1084.06 1341.3 1084.06 1342.88 1083.65 1344.39C1083.04 1346.56 1081.18 1348.42 1077.46 1352.14C1073.75 1355.86 1071.89 1357.72 1069.71 1358.32C1068.21 1358.73 1066.62 1358.73 1065.12 1358.32C1062.94 1357.72 1061.08 1355.86 1057.36 1352.14C1053.65 1348.42 1051.79 1346.56 1051.19 1344.39C1050.77 1342.88 1050.77 1341.3 1051.19 1339.79C1051.79 1337.62 1053.65 1335.76 1057.36 1332.04Z" fill="#E08DE9"/>
<path d="M1387.62 918.395C1390.18 915.838 1391.45 914.561 1392.95 914.146C1393.98 913.856 1395.08 913.856 1396.11 914.146C1397.61 914.561 1398.88 915.838 1401.44 918.395C1403.99 920.948 1405.27 922.228 1405.69 923.725C1405.98 924.757 1405.98 925.849 1405.69 926.882C1405.27 928.378 1403.99 929.655 1401.44 932.212C1398.88 934.769 1397.61 936.045 1396.11 936.46C1395.08 936.746 1393.98 936.746 1392.95 936.46C1391.45 936.045 1390.18 934.769 1387.62 932.212C1385.07 929.655 1383.79 928.378 1383.37 926.882C1383.09 925.849 1383.09 924.757 1383.37 923.725C1383.79 922.228 1385.07 920.948 1387.62 918.395Z" fill="#E08DE9"/>
<path d="M1081.54 1083.32C1185.93 978.927 1185.93 809.675 1081.54 705.284C977.148 600.893 807.896 600.893 703.505 705.284C599.114 809.675 599.114 978.927 703.505 1083.32C807.896 1187.71 977.148 1187.71 1081.54 1083.32Z" fill="#34A853" stroke="#61DD82" stroke-width="8"/>
<path d="M703.506 1083.32L750.758 1036.06" stroke="#61DD82" stroke-width="8" stroke-linecap="round"/>
<path d="M824.944 1147.64L924.147 1051.69" stroke="#61DD82" stroke-width="8" stroke-linecap="round"/>
<path d="M1018.75 947.333L1115.4 853.15" stroke="#61DD82" stroke-width="8" stroke-linecap="round"/>
<path d="M632.621 870.671L703.502 799.793" stroke="#61DD82" stroke-width="8" stroke-linecap="round"/>
<path d="M927.963 858.86L1004.71 782.118" stroke="#61DD82" stroke-width="8" stroke-linecap="round"/>
<path d="M998.845 882.486L1116.98 764.349" stroke="#61DD82" stroke-width="8" stroke-linecap="round"/>
<path d="M868.893 823.416L892.519 799.79" stroke="#61DD82" stroke-width="8" stroke-linecap="round"/>
<path d="M939.774 752.537L1022.47 669.844" stroke="#61DD82" stroke-width="8" stroke-linecap="round"/>
<path d="M750.758 752.537L774.384 728.911" stroke="#61DD82" stroke-width="8" stroke-linecap="round"/>
<path d="M814.479 689.888L817.179 687.191" stroke="#61DD82" stroke-width="8" stroke-linecap="round"/>
<path d="M950.522 1104.76L952.988 1102.3" stroke="#61DD82" stroke-width="8" stroke-linecap="round"/>
<path d="M1041.22 745.47L1043.68 743.004" stroke="#61DD82" stroke-width="8" stroke-linecap="round"/>
<path d="M823.234 968.72L825.701 966.254" stroke="#61DD82" stroke-width="8" stroke-linecap="round"/>
<path d="M644.439 953.368L727.136 870.671" stroke="#61DD82" stroke-width="8" stroke-linecap="round"/>
<path d="M684.715 1007.6L672.9 1019.41" stroke="#61DD82" stroke-width="8" stroke-linecap="round"/>
<path d="M762.573 1118.76L776.526 1104.8" stroke="#61DD82" stroke-width="8" stroke-linecap="round"/>
<path d="M992.381 1063.93L1152.42 899.977" stroke="#61DD82" stroke-width="8" stroke-linecap="round"/>
<path d="M775.04 822.771L959.919 637.892" stroke="#61DD82" stroke-width="8" stroke-linecap="round"/>
<path d="M927.963 1047.88C992.402 983.441 929.037 952.294 998.845 882.486" stroke="#61DD82" stroke-width="8" stroke-linecap="round"/>
<path d="M929.7 1046.14C823.377 1152.46 675.708 1016.6 770.216 922.096C852.913 839.402 954.781 937.283 892.965 1006.37" stroke="#61DD82" stroke-width="8" stroke-linecap="round"/>
<path d="M809.839 879.047V889.512" stroke="#61DD82" stroke-width="8" stroke-linecap="round"/>
<path d="M833.87 1386.84C828.847 1386.84 824.487 1385.13 820.789 1381.71C817.161 1378.22 815.347 1374 815.347 1369.05V1273.82L756.221 1303.43C752.454 1305.31 748.547 1305.59 744.5 1304.27C740.454 1302.87 737.524 1300.36 735.71 1296.73C733.687 1292.9 733.338 1288.95 734.664 1284.91C736.059 1280.79 738.78 1277.79 742.826 1275.91L822.359 1236.35C824.312 1235.3 826.196 1234.54 828.01 1234.05C829.894 1233.56 831.777 1233.32 833.661 1233.32C839.172 1233.32 843.672 1235.3 847.161 1239.28C850.719 1243.26 852.498 1248.32 852.498 1254.46V1369.05C852.498 1374 850.649 1378.22 846.951 1381.71C843.323 1385.13 838.963 1386.84 833.87 1386.84ZM935.871 1382.02C932.662 1378.81 931.092 1374.94 931.162 1370.41C931.301 1365.87 933.046 1362 936.394 1358.79L1025.24 1265.44L1025.03 1264.92H910.755C906.639 1264.92 903.081 1263.46 900.081 1260.52C897.151 1257.59 895.686 1254.07 895.686 1249.96C895.686 1245.84 897.151 1242.32 900.081 1239.39C903.081 1236.46 906.639 1234.99 910.755 1234.99H1053.39C1058.83 1234.99 1063.44 1236.84 1067.2 1240.54C1071.04 1244.16 1072.96 1248.63 1072.96 1253.93C1072.96 1257 1072.3 1259.72 1070.97 1262.09C1069.72 1264.4 1068.25 1266.39 1066.58 1268.06L958.057 1382.13C955.057 1385.06 951.359 1386.49 946.964 1386.42C942.569 1386.42 938.871 1384.95 935.871 1382.02Z" fill="white"/>
<path d="M573.788 721.624L520.085 629.084L532.922 613.174L634.637 646.204L619.261 665.264L558.969 643.33L548.494 639.092L548.274 639.364L554.578 648.664L588.682 703.161L573.788 721.624ZM570.488 694.936L561.68 680.299L590.462 644.628L606.804 649.923L570.488 694.936ZM653.798 623.011L600.905 538.259L620.377 526.106L685.716 557.536L686.068 557.312L677.627 544.573L653.285 505.571L671.749 494.045L724.645 578.8L707.598 589.436L638.54 557.452L638.185 557.672L646.557 570.296L672.265 611.489L653.798 623.011ZM757.749 558.512L735.982 461.008L770.432 453.316C785.324 449.992 798.328 451.785 809.449 458.688C820.569 465.595 827.755 476.332 831.006 490.903C834.292 505.613 832.37 518.453 825.24 529.434C818.103 540.366 807.091 547.496 792.203 550.821L757.749 558.512ZM775.494 534.251L786.726 531.743C795.499 529.832 801.855 525.743 805.793 519.479C809.766 513.161 810.715 505.347 808.636 496.041C806.588 486.874 802.441 480.34 796.186 476.447C789.967 472.498 782.477 471.501 773.715 473.458L762.479 475.966L775.494 534.251ZM875.901 532.591L885.94 433.192L925.504 437.19C935.362 438.184 943.371 441.938 949.538 448.45C955.706 454.963 958.301 463.08 957.321 472.798C956.4 481.913 952.427 489.085 945.401 494.311C938.379 499.494 929.732 501.566 919.459 500.527L888.919 497.443L890.544 481.341L918.517 484.167C922.682 484.585 926.306 483.643 929.39 481.338C932.481 478.983 934.239 475.68 934.668 471.42C935.051 467.625 934.008 464.297 931.542 461.43C929.076 458.514 925.856 456.857 921.876 456.456L906.465 454.9L898.393 534.862L875.901 532.591ZM931.225 538.179L907.264 490.742L931.019 492.298L957.045 540.785L931.225 538.179ZM1025.58 565.834C1012.53 559.712 1003.47 550.095 998.42 536.99C993.41 523.905 994.185 510.371 1000.74 496.39C1007.32 482.367 1017.24 473.151 1030.51 468.741C1043.84 464.308 1056.99 465.135 1069.96 471.218C1082.93 477.298 1091.93 486.915 1096.96 500.063C1102.06 513.189 1101.35 526.678 1094.86 540.534C1088.42 554.26 1078.53 563.445 1065.21 568.088C1051.88 572.727 1038.67 571.977 1025.58 565.834ZM1034.91 545.937C1042.45 549.474 1049.94 549.827 1057.38 546.998C1064.86 544.189 1070.47 538.804 1074.2 530.847C1077.97 522.803 1078.53 515.048 1075.87 507.583C1073.2 500.119 1068.12 494.628 1060.63 491.112C1053.18 487.617 1045.7 487.243 1038.19 489.989C1030.73 492.758 1025.13 498.12 1021.4 506.077C1017.64 514.079 1017.06 521.844 1019.64 529.375C1022.28 536.882 1027.37 542.403 1034.91 545.937ZM1106.53 602.015L1172.2 526.724L1189.44 541.765L1123.77 617.056L1106.53 602.015ZM1157.5 647.621L1237.84 588.246L1258.82 616.638C1267.89 628.906 1271.51 641.523 1269.7 654.485C1267.89 667.451 1260.98 678.37 1248.97 687.24C1236.85 696.198 1224.33 699.638 1211.41 697.566C1198.52 695.466 1187.54 688.28 1178.47 676.012L1157.5 647.621ZM1186.86 654.025L1193.7 663.283C1199 670.528 1205.31 674.686 1212.63 675.75C1220.02 676.828 1227.55 674.533 1235.22 668.864C1242.77 663.283 1247.07 656.844 1248.09 649.546C1249.19 642.263 1247.07 635.01 1241.73 627.79L1234.89 618.532L1186.86 654.025Z" fill="white"/>
</svg>
