<svg id="vector" xmlns="http://www.w3.org/2000/svg" width="708" height="708" viewBox="0 0 708 708"><path fill="#E91E63" d="M354,354m-354,0a354,354 0,1 1,708 0a354,354 0,1 1,-708 0" id="path_0"/><path fill="#F06292" d="M354,354l250.3,-250.3C670.7,170 708,260.1 708,354c0,194.2 -159.8,354 -354,354c-93.9,0 -184,-37.3 -250.3,-103.7L354,354z" id="path_1"/><path fill="#EE4C83" d="M193.3,513.9L386,706.6c170.5,-15.3 306.1,-151.3 320.7,-322l-192,-192L193.3,513.9z" id="path_2"/><path fill="#EEEEEE" d="M193.3,513.9l160.7,0l0,-160.6l-160.7,-160.7z" id="path_3"/><path fill="#FFFFFF" d="M514.7,513.9l-160.7,0l0,-160.6l160.7,-160.7z" id="path_4"/><path fill="#DDDDDD" d="M514.7,513.9l-160.7,0l160.7,-160.6z" id="path_5"/><path fill="#DDDDDD" d="M193.3,513.9l160.7,0l-160.7,-160.6z" id="path_6"/></svg>