<svg id="vector" xmlns="http://www.w3.org/2000/svg" width="196" height="196" viewBox="0 0 196 196"><path fill="#3DDC84" d="M98,196C152.12,196 196,152.12 196,98C196,43.88 152.12,0 98,0C43.88,0 0,43.88 0,98C0,152.12 43.88,196 98,196Z" id="path_0"/><path fill="#000000" d="M49.77,52.29C53.81,52.32 57.68,53.94 60.53,56.81C63.39,59.68 64.99,63.56 64.99,67.6V143.71" fill-opacity="0" stroke-linecap="round" stroke="#ffffff" stroke-width="6.13" id="path_1"/><path fill="#000000" d="M146.23,143.71H85.31V128.47C85.31,120.39 88.52,112.64 94.23,106.93C99.95,101.21 107.7,98 115.78,98H131.09C133.1,98 135.08,97.6 136.94,96.83C138.79,96.06 140.47,94.93 141.89,93.51C143.3,92.09 144.42,90.4 145.18,88.54C145.94,86.68 146.32,84.69 146.31,82.69C146.31,75.49 143.77,68.52 139.12,63.02C134.48,57.52 128.03,53.84 120.93,52.63C113.83,51.43 106.54,52.78 100.34,56.44C94.14,60.1 89.44,65.84 87.07,72.64C86.49,74.28 86.05,75.97 85.75,77.68" fill-opacity="0" stroke-linecap="round" stroke="#ffffff" stroke-width="6.13" id="path_2"/></svg>