<svg width="923" height="684" viewBox="0 0 923 684" fill="none" xmlns="http://www.w3.org/2000/svg">
<path fill-rule="evenodd" clip-rule="evenodd" d="M0 212.306C0 191.716 16.9288 175.025 37.8116 175.025H314.433C335.316 175.025 352.245 191.716 352.245 212.306C352.245 232.896 335.316 249.587 314.433 249.587H37.8116C16.9288 249.587 0 232.896 0 212.306Z" fill="black"/>
<path d="M606.577 543.911L522.595 469.741H690.16L606.179 543.911H606.577Z" fill="black"/>
<path d="M485.58 421.08C511.299 421.08 532.148 400.523 532.148 375.165C532.148 349.807 511.299 329.251 485.58 329.251C459.861 329.251 439.012 349.807 439.012 375.165C439.012 400.523 459.861 421.08 485.58 421.08Z" fill="black"/>
<path fill-rule="evenodd" clip-rule="evenodd" d="M321.597 2.35485C342.48 2.35485 359.408 19.0461 359.408 39.6359V549.405C359.408 569.995 342.48 586.686 321.597 586.686C300.714 586.686 283.785 569.995 283.785 549.405V39.6359C283.785 19.0461 300.714 2.35485 321.597 2.35485Z" fill="black"/>
<path fill-rule="evenodd" clip-rule="evenodd" d="M911.101 12.1214C925.194 27.3154 924.126 50.8969 908.716 64.7923L742.83 214.372C719.981 235.822 689.551 247.51 658.471 248.045L658.186 248.049L541.004 249.193C540.879 249.194 540.755 249.194 540.63 249.194C508.339 249.194 477.087 237.37 453.638 215.174L297.799 67.6616C282.735 53.4022 282.247 29.8021 296.709 14.9492C311.171 0.0963493 335.107 -0.384782 350.172 13.8746L506.011 161.387C514.742 169.652 526.917 174.593 540.467 174.632L657.275 173.492C670.279 173.239 682.327 168.283 690.82 160.244C691.04 160.035 691.263 159.829 691.488 159.626L857.681 9.77021C873.091 -4.12518 897.008 -3.07251 911.101 12.1214Z" fill="black"/>
<path fill-rule="evenodd" clip-rule="evenodd" d="M913.816 523.943C927.199 539.749 925.053 563.259 909.022 576.454L821.214 648.729C798.627 670.78 768.394 682.808 736.82 682.832C736.789 682.832 736.759 682.832 736.728 682.832L470.226 684.009L470.057 684.009C438.467 684.009 407.896 671.998 384.946 650.048L297.378 578.034C281.341 564.846 279.184 541.337 292.56 525.525C305.936 509.714 329.779 507.587 345.816 520.775L434.574 593.768C435.447 594.486 436.287 595.243 437.091 596.035C445.823 604.645 457.636 609.428 469.985 609.447C470.009 609.447 470.033 609.447 470.057 609.447L736.559 608.27L736.728 608.27C748.997 608.27 760.276 603.572 768.561 595.194C769.463 594.282 770.411 593.417 771.403 592.601L860.558 519.216C876.589 506.021 900.434 508.137 913.816 523.943Z" fill="black"/>
<path fill-rule="evenodd" clip-rule="evenodd" d="M885.188 0.000231282C906.071 0.000231282 923 16.6915 923 37.2813V547.835C923 568.425 906.071 585.116 885.188 585.116C864.306 585.116 847.377 568.425 847.377 547.835V37.2813C847.377 16.6915 864.306 0.000231282 885.188 0.000231282Z" fill="black"/>
<path d="M729.166 419.117C754.885 419.117 775.734 398.561 775.734 373.203C775.734 347.845 754.885 327.288 729.166 327.288C703.447 327.288 682.598 347.845 682.598 373.203C682.598 398.561 703.447 419.117 729.166 419.117Z" fill="black"/>
<path fill-rule="evenodd" clip-rule="evenodd" d="M46.1699 388.115C46.1699 367.526 63.0987 350.834 83.9815 350.834H312.045C332.928 350.834 349.856 367.526 349.856 388.115C349.856 408.705 332.928 425.396 312.045 425.396H83.9815C63.0987 425.396 46.1699 408.705 46.1699 388.115Z" fill="black"/>
<path fill-rule="evenodd" clip-rule="evenodd" d="M47.3639 548.62C47.3639 528.03 64.2928 511.339 85.1755 511.339H313.637C334.52 511.339 351.449 528.03 351.449 548.62C351.449 569.21 334.52 585.901 313.637 585.901H85.1755C64.2928 585.901 47.3639 569.21 47.3639 548.62Z" fill="black"/>
</svg>
