<svg width="336" height="336" viewBox="0 0 336 336" fill="none" xmlns="http://www.w3.org/2000/svg">
<path d="M168 119H0V42C0 34.2656 6.26563 28 14 28H133L168 56V119Z" fill="#212121"/>
<path d="M168 119H0V42C0 34.2656 6.26563 28 14 28H133L168 56V119Z" fill="url(#paint0_linear_2034_120)"/>
<path d="M133 28H14C6.26563 28 0 34.2656 0 42V45.5C0 37.7656 6.26563 31.5 14 31.5H133L168 59.5V56L133 28Z" fill="white" fill-opacity="0.2"/>
<path d="M322 56H168L133 84H14C6.26563 84 0 90.2656 0 98V280C0 287.734 6.26563 294 14 294H322C329.734 294 336 287.734 336 280V70C336 62.2656 329.734 56 322 56Z" fill="#151515"/>
<path d="M322 290.5H14C6.26563 290.5 0 284.229 0 276.5V280C0 287.729 6.26563 294 14 294H322C329.734 294 336 287.729 336 280V276.5C336 284.229 329.734 290.5 322 290.5Z" fill="black" fill-opacity="0.101961"/>
<path d="M266 168H70C62.2656 168 56 174.266 56 182V301C56 304.865 59.1354 308 63 308H105C108.865 308 112 304.865 112 301V224H224V301C224 304.865 227.135 308 231 308H273C276.865 308 280 304.865 280 301V182C280 174.266 273.734 168 266 168Z" fill="#D71921"/>
<path d="M322 56H168L133 84H14C6.26563 84 0 90.2656 0 98V101.5C0 93.7656 6.26563 87.5 14 87.5H133L168 59.5H322C329.734 59.5 336 65.7656 336 73.5V70C336 62.2656 329.734 56 322 56Z" fill="white" fill-opacity="0.2"/>
<path d="M266 168H70C62.2656 168 56 174.266 56 182V185.5C56 177.766 62.2656 171.5 70 171.5H266C273.734 171.5 280 177.766 280 185.5V182C280 174.266 273.734 168 266 168Z" fill="white" fill-opacity="0.2"/>
<path d="M273 304.5H231C227.135 304.5 224 301.365 224 297.5V301C224 304.865 227.135 308 231 308H273C276.865 308 280 304.865 280 301V297.5C280 301.365 276.865 304.5 273 304.5Z" fill="black" fill-opacity="0.101961"/>
<path d="M105 304.5H63C59.1354 304.5 56 301.365 56 297.5V301C56 304.865 59.1354 308 63 308H105C108.865 308 112 304.865 112 301V297.5C112 301.365 108.865 304.5 105 304.5Z" fill="black" fill-opacity="0.101961"/>
<path d="M112 220.5H224V224H112V220.5Z" fill="black" fill-opacity="0.101961"/>
<path d="M112 224L182 294H224V224" fill="url(#paint1_linear_2034_120)"/>
<path d="M276.375 172.776V172.802C278.563 175.271 280 178.437 280 182V294H322C329.734 294 336 287.729 336 280V232.401L276.375 172.776Z" fill="url(#paint2_linear_2034_120)"/>
<path d="M322 56H168L133 28H14C6.26563 28 0 34.2656 0 42V280C0 287.729 6.26563 294 14 294H56V301C56 304.865 59.1354 308 63 308H105C108.865 308 112 304.865 112 301V294H224V301C224 304.865 227.135 308 231 308H273C276.865 308 280 304.865 280 301V294H322C329.734 294 336 287.729 336 280V70C336 62.2656 329.734 56 322 56Z" fill="url(#paint3_linear_2034_120)"/>
<defs>
<linearGradient id="paint0_linear_2034_120" x1="84" y1="28" x2="84" y2="119" gradientUnits="userSpaceOnUse">
<stop stop-opacity="0"/>
<stop offset="1" stop-opacity="0.101961"/>
</linearGradient>
<linearGradient id="paint1_linear_2034_120" x1="140" y1="196" x2="231" y2="287" gradientUnits="userSpaceOnUse">
<stop stop-opacity="0.101961"/>
<stop offset="1" stop-opacity="0"/>
</linearGradient>
<linearGradient id="paint2_linear_2034_120" x1="246.976" y1="202.176" x2="333.3" y2="288.499" gradientUnits="userSpaceOnUse">
<stop stop-opacity="0.101961"/>
<stop offset="1" stop-opacity="0"/>
</linearGradient>
<linearGradient id="paint3_linear_2034_120" x1="-22.128" y1="86.3418" x2="347.403" y2="258.657" gradientUnits="userSpaceOnUse">
<stop stop-color="white" stop-opacity="0.2"/>
<stop offset="1" stop-color="white" stop-opacity="0"/>
</linearGradient>
</defs>
</svg>
