<svg id="vector" xmlns="http://www.w3.org/2000/svg" width="560" height="560" viewBox="0 0 560 560"><path fill="#9c28b1" d="M280,280m-280,0a280,280 0,1 1,560 0a280,280 0,1 1,-560 0" id="path_0"/><path fill="#a235b6" d="M210,210m-120,0a120,120 0,1 1,240 0a120,120 0,1 1,-240 0" id="path_1"/><path fill="#ffffff" d="M264.08,240.74l0,9.82c7.31,-7.15 17.14,-11.56 28.07,-11.56c22.64,0 40.8,18.48 40.8,41.12c0,22.48 -18.16,40.88 -40.8,40.88c-10.93,0 -20.28,-4.09 -27.59,-10.93L264.56,339l-11.32,0l0,-98.27L264.08,240.73zM265.81,264.87c-0.47,0.79 -1.26,2.04 -1.26,4.79l0,21.07c0,1.97 0.47,3.07 1.1,4.17c5.19,8.88 14.78,14.94 25.63,14.94c16.43,0 29.95,-13.44 29.95,-29.87c0,-16.28 -13.52,-29.8 -29.95,-29.8C280.51,250.17 271,256.06 265.81,264.87z" id="path_2"/><path fill="#ffffff" d="M445.73,240.74l0,9.82c7.31,-7.15 17.14,-11.56 28.07,-11.56c22.64,0 40.8,18.48 40.8,41.12c0,22.48 -18.16,40.88 -40.8,40.88c-10.93,0 -20.28,-4.09 -27.59,-10.93L446.21,339l-11.32,0l0,-98.27L445.73,240.73zM447.46,264.87c-0.47,0.79 -1.26,2.04 -1.26,4.79l0,21.07c0,1.97 0.47,3.07 1.1,4.17c5.19,8.88 14.78,14.94 25.63,14.94c16.43,0 29.95,-13.44 29.95,-29.87c0,-16.28 -13.52,-29.8 -29.95,-29.8C462.16,250.17 452.65,256.06 447.46,264.87z" id="path_3"/><path fill="#ffffff" d="M169.49,279.88c0,22.64 -18.32,41.12 -40.81,41.12c-22.64,0 -41.04,-18.48 -41.04,-41.12c0,-22.48 18.39,-40.88 41.04,-40.88C151.17,239 169.49,257.4 169.49,279.88zM158.09,280.04c0,-16.43 -13.13,-29.87 -29.41,-29.87c-16.51,0 -29.4,13.44 -29.4,29.87c0,16.28 12.89,29.8 29.4,29.8C144.96,309.84 158.09,296.31 158.09,280.04z" id="path_4"/><path fill="#ffffff" d="M423.79,279.88c0,22.64 -18.32,41.12 -40.81,41.12c-22.64,0 -41.04,-18.48 -41.04,-41.12c0,-22.48 18.39,-40.88 41.04,-40.88C405.47,239 423.79,257.4 423.79,279.88zM412.39,280.04c0,-16.43 -13.13,-29.87 -29.41,-29.87c-16.51,0 -29.4,13.44 -29.4,29.87c0,16.28 12.89,29.8 29.4,29.8C399.26,309.84 412.39,296.31 412.39,280.04z" id="path_5"/><path fill="#ffffff" d="M229.02,221l11.17,0l0,11.48l-11.17,0z" id="path_6"/><path fill="#ffffff" d="M229.02,240.65l11.17,0l0,78.62l-11.17,0z" id="path_7"/><path fill="#ffffff" d="M65.4,221l11.17,0l0,98.27l-11.17,0z" id="path_8"/><path fill="#ffffff" d="M180.58,221l11.17,0l0,98.27l-11.17,0z" id="path_9"/><path fill="#ffffff" d="M204.8,221l11.17,0l0,98.27l-11.17,0z" id="path_10"/></svg>