<?xml version="1.0" encoding="UTF-8"?>
<!--Generator: Apple Native CoreSVG 232.5-->
<!DOCTYPE svg
PUBLIC "-//W3C//DTD SVG 1.1//EN"
       "http://www.w3.org/Graphics/SVG/1.1/DTD/svg11.dtd">
<svg version="1.1" xmlns="http://www.w3.org/2000/svg" xmlns:xlink="http://www.w3.org/1999/xlink" width="3300" height="2200">
 <!--glyph: "", point size: 100.0, font version: "19.2d2e1", template writer version: "128"-->
 <style>.monochrome-0 {-sfsymbols-motion-group:3}
.monochrome-1 {-sfsymbols-motion-group:2}
.monochrome-2 {-sfsymbols-motion-group:1}
.monochrome-3 {-sfsymbols-motion-group:0}

.multicolor-0:tintColor {-sfsymbols-motion-group:3}
.multicolor-1:tintColor {-sfsymbols-motion-group:2}
.multicolor-2:tintColor {-sfsymbols-motion-group:1}
.multicolor-3:tintColor {-sfsymbols-motion-group:0}

.hierarchical-0:primary {-sfsymbols-motion-group:3}
.hierarchical-1:primary {-sfsymbols-motion-group:2}
.hierarchical-2:primary {-sfsymbols-motion-group:1}
.hierarchical-3:primary {-sfsymbols-motion-group:0}

.SFSymbolsPreviewWireframe {fill:none;opacity:1.0;stroke:black;stroke-width:0.5}
</style>
 <g id="Notes">
  <rect height="2200" id="artboard" style="fill:white;opacity:1" width="3300" x="0" y="0"/>
  <line style="fill:none;stroke:black;opacity:1;stroke-width:0.5;" x1="263" x2="3036" y1="292" y2="292"/>
  <text style="stroke:none;fill:black;font-family:sans-serif;font-size:13;font-weight:bold;" transform="matrix(1 0 0 1 263 322)">Weight/Scale Variations</text>
  <text style="stroke:none;fill:black;font-family:sans-serif;font-size:13;text-anchor:middle;" transform="matrix(1 0 0 1 559.711 322)">Ultralight</text>
  <text style="stroke:none;fill:black;font-family:sans-serif;font-size:13;text-anchor:middle;" transform="matrix(1 0 0 1 856.422 322)">Thin</text>
  <text style="stroke:none;fill:black;font-family:sans-serif;font-size:13;text-anchor:middle;" transform="matrix(1 0 0 1 1153.13 322)">Light</text>
  <text style="stroke:none;fill:black;font-family:sans-serif;font-size:13;text-anchor:middle;" transform="matrix(1 0 0 1 1449.84 322)">Regular</text>
  <text style="stroke:none;fill:black;font-family:sans-serif;font-size:13;text-anchor:middle;" transform="matrix(1 0 0 1 1746.56 322)">Medium</text>
  <text style="stroke:none;fill:black;font-family:sans-serif;font-size:13;text-anchor:middle;" transform="matrix(1 0 0 1 2043.27 322)">Semibold</text>
  <text style="stroke:none;fill:black;font-family:sans-serif;font-size:13;text-anchor:middle;" transform="matrix(1 0 0 1 2339.98 322)">Bold</text>
  <text style="stroke:none;fill:black;font-family:sans-serif;font-size:13;text-anchor:middle;" transform="matrix(1 0 0 1 2636.69 322)">Heavy</text>
  <text style="stroke:none;fill:black;font-family:sans-serif;font-size:13;text-anchor:middle;" transform="matrix(1 0 0 1 2933.4 322)">Black</text>
  <line style="fill:none;stroke:black;opacity:1;stroke-width:0.5;" x1="263" x2="3036" y1="1903" y2="1903"/>
  <g transform="matrix(0.2 0 0 0.2 263 1933)">
   <path d="m46.2402 4.15039c21.5332 0 39.4531-17.8711 39.4531-39.4043s-17.9688-39.4043-39.502-39.4043c-21.4844 0-39.3555 17.8711-39.3555 39.4043s17.9199 39.4043 39.4043 39.4043Zm0-7.42188c-17.7246 0-31.8848-14.209-31.8848-31.9824s14.1113-31.9824 31.8359-31.9824c17.7734 0 32.0312 14.209 32.0312 31.9824s-14.209 31.9824-31.9824 31.9824Zm-17.9688-31.9824c0 2.14844 1.51367 3.61328 3.75977 3.61328h10.498v10.5957c0 2.19727 1.46484 3.71094 3.61328 3.71094 2.24609 0 3.71094-1.51367 3.71094-3.71094v-10.5957h10.5957c2.19727 0 3.71094-1.46484 3.71094-3.61328 0-2.19727-1.51367-3.71094-3.71094-3.71094h-10.5957v-10.5469c0-2.24609-1.46484-3.75977-3.71094-3.75977-2.14844 0-3.61328 1.51367-3.61328 3.75977v10.5469h-10.498c-2.24609 0-3.75977 1.51367-3.75977 3.71094Z"/>
  </g>
  <g transform="matrix(0.2 0 0 0.2 281.506 1933)">
   <path d="m58.5449 14.5508c27.2461 0 49.8047-22.6074 49.8047-49.8047 0-27.2461-22.6074-49.8047-49.8535-49.8047-27.1973 0-49.7559 22.5586-49.7559 49.8047 0 27.1973 22.6074 49.8047 49.8047 49.8047Zm0-8.30078c-23.0469 0-41.4551-18.457-41.4551-41.5039s18.3594-41.5039 41.4062-41.5039 41.5527 18.457 41.5527 41.5039-18.457 41.5039-41.5039 41.5039Zm-22.6562-41.5039c0 2.39258 1.66016 4.00391 4.15039 4.00391h14.3555v14.4043c0 2.44141 1.66016 4.15039 4.05273 4.15039 2.44141 0 4.15039-1.66016 4.15039-4.15039v-14.4043h14.4043c2.44141 0 4.15039-1.61133 4.15039-4.00391 0-2.44141-1.70898-4.15039-4.15039-4.15039h-14.4043v-14.3555c0-2.49023-1.70898-4.19922-4.15039-4.19922-2.39258 0-4.05273 1.70898-4.05273 4.19922v14.3555h-14.3555c-2.49023 0-4.15039 1.70898-4.15039 4.15039Z"/>
  </g>
  <g transform="matrix(0.2 0 0 0.2 304.924 1933)">
   <path d="m74.8535 28.3203c34.8145 0 63.623-28.8086 63.623-63.5742 0-34.8145-28.8574-63.623-63.6719-63.623-34.7656 0-63.5254 28.8086-63.5254 63.623 0 34.7656 28.8086 63.5742 63.5742 63.5742Zm0-9.08203c-30.1758 0-54.4434-24.3164-54.4434-54.4922 0-30.2246 24.2188-54.4922 54.3945-54.4922 30.2246 0 54.541 24.2676 54.541 54.4922 0 30.1758-24.2676 54.4922-54.4922 54.4922Zm-28.8574-54.4922c0 2.58789 1.85547 4.39453 4.58984 4.39453h19.7266v19.7754c0 2.68555 1.85547 4.58984 4.44336 4.58984 2.68555 0 4.54102-1.85547 4.54102-4.58984v-19.7754h19.7754c2.68555 0 4.58984-1.80664 4.58984-4.39453 0-2.73438-1.85547-4.58984-4.58984-4.58984h-19.7754v-19.7266c0-2.73438-1.85547-4.63867-4.54102-4.63867-2.58789 0-4.44336 1.9043-4.44336 4.63867v19.7266h-19.7266c-2.73438 0-4.58984 1.85547-4.58984 4.58984Z"/>
  </g>
  <text style="stroke:none;fill:black;font-family:sans-serif;font-size:13;font-weight:bold;" transform="matrix(1 0 0 1 263 1953)">Design Variations</text>
  <text style="stroke:none;fill:black;font-family:sans-serif;font-size:13;" transform="matrix(1 0 0 1 263 1971)">Symbols are supported in up to nine weights and three scales.</text>
  <text style="stroke:none;fill:black;font-family:sans-serif;font-size:13;" transform="matrix(1 0 0 1 263 1989)">For optimal layout with text and other symbols, vertically align</text>
  <text style="stroke:none;fill:black;font-family:sans-serif;font-size:13;" transform="matrix(1 0 0 1 263 2007)">symbols with the adjacent text.</text>
  <line style="fill:none;stroke:#00AEEF;stroke-width:0.5;opacity:1.0;" x1="776" x2="776" y1="1919" y2="1933"/>
  <g transform="matrix(0.2 0 0 0.2 776 1933)">
   <path d="m16.5527 0.78125c2.58789 0 3.85742-0.976562 4.78516-3.71094l6.29883-17.2363h28.8086l6.29883 17.2363c0.927734 2.73438 2.19727 3.71094 4.73633 3.71094 2.58789 0 4.24805-1.5625 4.24805-4.00391 0-0.830078-0.146484-1.61133-0.537109-2.63672l-22.9004-60.9863c-1.12305-2.97852-3.125-4.49219-6.25-4.49219-3.02734 0-5.07812 1.46484-6.15234 4.44336l-22.9004 61.084c-0.390625 1.02539-0.537109 1.80664-0.537109 2.63672 0 2.44141 1.5625 3.95508 4.10156 3.95508Zm13.4766-28.3691 11.8652-32.8613h0.244141l11.8652 32.8613Z"/>
  </g>
  <line style="fill:none;stroke:#00AEEF;stroke-width:0.5;opacity:1.0;" x1="792.836" x2="792.836" y1="1919" y2="1933"/>
  <text style="stroke:none;fill:black;font-family:sans-serif;font-size:13;font-weight:bold;" transform="matrix(1 0 0 1 776 1953)">Margins</text>
  <text style="stroke:none;fill:black;font-family:sans-serif;font-size:13;" transform="matrix(1 0 0 1 776 1971)">Leading and trailing margins on the left and right side of each symbol</text>
  <text style="stroke:none;fill:black;font-family:sans-serif;font-size:13;" transform="matrix(1 0 0 1 776 1989)">can be adjusted by modifying the x-location of the margin guidelines.</text>
  <text style="stroke:none;fill:black;font-family:sans-serif;font-size:13;" transform="matrix(1 0 0 1 776 2007)">Modifications are automatically applied proportionally to all</text>
  <text style="stroke:none;fill:black;font-family:sans-serif;font-size:13;" transform="matrix(1 0 0 1 776 2025)">scales and weights.</text>
  <g transform="matrix(0.2 0 0 0.2 1289 1933)">
   <path d="m14.209 9.32617 8.49609 8.54492c4.29688 4.3457 9.22852 4.05273 13.8672-1.07422l53.4668-58.9355-4.83398-4.88281-53.0762 58.3984c-1.75781 2.00195-3.41797 2.49023-5.76172 0.146484l-5.85938-5.81055c-2.34375-2.29492-1.80664-4.00391 0.195312-5.81055l57.373-54.0039-4.88281-4.83398-57.959 54.4434c-4.93164 4.58984-5.32227 9.47266-1.02539 13.8184Zm32.0801-90.9668c-2.09961 2.05078-2.24609 4.93164-1.07422 6.88477 1.17188 1.80664 3.4668 2.97852 6.68945 2.14844 7.32422-1.70898 14.9414-2.00195 22.0703 2.68555l-2.92969 7.27539c-1.70898 4.15039-0.830078 7.08008 1.85547 9.81445l11.4746 11.5723c2.44141 2.44141 4.49219 2.53906 7.32422 2.05078l5.32227-0.976562 3.32031 3.36914-0.195312 2.7832c-0.195312 2.49023 0.439453 4.39453 2.88086 6.78711l3.80859 3.71094c2.39258 2.39258 5.46875 2.53906 7.8125 0.195312l14.5508-14.5996c2.34375-2.34375 2.24609-5.32227-0.146484-7.71484l-3.85742-3.80859c-2.39258-2.39258-4.24805-3.17383-6.64062-2.97852l-2.88086 0.244141-3.22266-3.17383 1.2207-5.61523c0.634766-2.83203-0.146484-5.0293-3.07617-7.95898l-10.9863-10.9375c-16.6992-16.6016-38.8672-16.2109-53.3203-1.75781Zm7.4707 1.85547c12.1582-8.88672 28.6133-7.37305 39.7461 3.75977l12.1582 12.0605c1.17188 1.17188 1.36719 2.09961 1.02539 3.80859l-1.61133 7.42188 7.51953 7.42188 4.93164-0.292969c1.26953-0.0488281 1.66016 0.0488281 2.63672 1.02539l2.88086 2.88086-12.207 12.207-2.88086-2.88086c-0.976562-0.976562-1.12305-1.36719-1.07422-2.68555l0.341797-4.88281-7.4707-7.42188-7.61719 1.26953c-1.61133 0.341797-2.34375 0.195312-3.56445-0.976562l-10.0098-10.0098c-1.26953-1.17188-1.41602-2.00195-0.634766-3.85742l4.39453-10.4492c-7.8125-7.27539-17.9688-10.4004-28.125-7.42188-0.78125 0.195312-1.07422-0.439453-0.439453-0.976562Z"/>
  </g>
  <text style="stroke:none;fill:black;font-family:sans-serif;font-size:13;font-weight:bold;" transform="matrix(1 0 0 1 1289 1953)">Exporting</text>
  <text style="stroke:none;fill:black;font-family:sans-serif;font-size:13;" transform="matrix(1 0 0 1 1289 1971)">Symbols should be outlined when exporting to ensure the</text>
  <text style="stroke:none;fill:black;font-family:sans-serif;font-size:13;" transform="matrix(1 0 0 1 1289 1989)">design is preserved when submitting to Xcode.</text>
  <text id="template-version" style="stroke:none;fill:black;font-family:sans-serif;font-size:13;text-anchor:end;" transform="matrix(1 0 0 1 3036 1933)">Template v.5.0</text>
  <text style="stroke:none;fill:black;font-family:sans-serif;font-size:13;text-anchor:end;" transform="matrix(1 0 0 1 3036 1951)">Requires Xcode 15 or greater</text>
  <text id="descriptive-name" style="stroke:none;fill:black;font-family:sans-serif;font-size:13;text-anchor:end;" transform="matrix(1 0 0 1 3036 1969)">Generated from logcat</text>
  <text style="stroke:none;fill:black;font-family:sans-serif;font-size:13;text-anchor:end;" transform="matrix(1 0 0 1 3036 1987)">Typeset at 100.0 points</text>
  <text style="stroke:none;fill:black;font-family:sans-serif;font-size:13;" transform="matrix(1 0 0 1 263 726)">Small</text>
  <text style="stroke:none;fill:black;font-family:sans-serif;font-size:13;" transform="matrix(1 0 0 1 263 1156)">Medium</text>
  <text style="stroke:none;fill:black;font-family:sans-serif;font-size:13;" transform="matrix(1 0 0 1 263 1586)">Large</text>
 </g>
 <g id="Guides">
  <g id="H-reference" style="fill:#27AAE1;stroke:none;" transform="matrix(1 0 0 1 339 696)">
   <path d="M0.993654 0L3.63775 0L29.3281-67.1323L30.0303-67.1323L30.0303-70.459L28.1226-70.459ZM11.6885-24.4799L46.9815-24.4799L46.2315-26.7285L12.4385-26.7285ZM55.1196 0L57.7637 0L30.6382-70.459L29.4326-70.459L29.4326-67.1323Z"/>
  </g>
  <line id="Baseline-S" style="fill:none;stroke:#27AAE1;opacity:1;stroke-width:0.5;" x1="263" x2="3036" y1="696" y2="696"/>
  <line id="Capline-S" style="fill:none;stroke:#27AAE1;opacity:1;stroke-width:0.5;" x1="263" x2="3036" y1="625.541" y2="625.541"/>
  <g id="H-reference" style="fill:#27AAE1;stroke:none;" transform="matrix(1 0 0 1 339 1126)">
   <path d="M0.993654 0L3.63775 0L29.3281-67.1323L30.0303-67.1323L30.0303-70.459L28.1226-70.459ZM11.6885-24.4799L46.9815-24.4799L46.2315-26.7285L12.4385-26.7285ZM55.1196 0L57.7637 0L30.6382-70.459L29.4326-70.459L29.4326-67.1323Z"/>
  </g>
  <line id="Baseline-M" style="fill:none;stroke:#27AAE1;opacity:1;stroke-width:0.5;" x1="263" x2="3036" y1="1126" y2="1126"/>
  <line id="Capline-M" style="fill:none;stroke:#27AAE1;opacity:1;stroke-width:0.5;" x1="263" x2="3036" y1="1055.54" y2="1055.54"/>
  <g id="H-reference" style="fill:#27AAE1;stroke:none;" transform="matrix(1 0 0 1 339 1556)">
   <path d="M0.993654 0L3.63775 0L29.3281-67.1323L30.0303-67.1323L30.0303-70.459L28.1226-70.459ZM11.6885-24.4799L46.9815-24.4799L46.2315-26.7285L12.4385-26.7285ZM55.1196 0L57.7637 0L30.6382-70.459L29.4326-70.459L29.4326-67.1323Z"/>
  </g>
  <line id="Baseline-L" style="fill:none;stroke:#27AAE1;opacity:1;stroke-width:0.5;" x1="263" x2="3036" y1="1556" y2="1556"/>
  <line id="Capline-L" style="fill:none;stroke:#27AAE1;opacity:1;stroke-width:0.5;" x1="263" x2="3036" y1="1485.54" y2="1485.54"/>
  <line id="left-margin-Ultralight-S" style="fill:none;stroke:#FF3B30;stroke-width:0.5;opacity:1.0;" x1="517.797" x2="517.797" y1="600.785" y2="720.121"/>
  <line id="right-margin-Ultralight-S" style="fill:none;stroke:#FF3B30;stroke-width:0.5;opacity:1.0;" x1="601.625" x2="601.625" y1="600.785" y2="720.121"/>
  <line id="left-margin-Regular-S" style="fill:none;stroke:#FF3B30;stroke-width:0.5;opacity:1.0;" x1="1405.73" x2="1405.73" y1="600.785" y2="720.121"/>
  <line id="right-margin-Regular-S" style="fill:none;stroke:#FF3B30;stroke-width:0.5;opacity:1.0;" x1="1493.96" x2="1493.96" y1="600.785" y2="720.121"/>
  <line id="left-margin-Black-S" style="fill:none;stroke:#FF3B30;stroke-width:0.5;opacity:1.0;" x1="2885.99" x2="2885.99" y1="600.785" y2="720.121"/>
  <line id="right-margin-Black-S" style="fill:none;stroke:#FF3B30;stroke-width:0.5;opacity:1.0;" x1="2980.81" x2="2980.81" y1="600.785" y2="720.121"/>
 </g>
 <g id="Symbols">
  <g id="Black-S" transform="matrix(1 0 0 1 2885.99 696)">
   <path class="monochrome-0 multicolor-0:tintColor hierarchical-0:primary SFSymbolsPreviewWireframe" d="M-11.24-10.429C-11.24-12.927-9.19-14.952-6.65-14.952L21.07-14.952C23.6-14.952 25.66-12.927 25.66-10.429C25.66-7.93 23.6-5.905 21.07-5.905L-6.65-5.905C-9.19-5.905-11.24-7.93-11.24-10.429Z"/>
   <path class="monochrome-1 multicolor-1:tintColor hierarchical-1:primary SFSymbolsPreviewWireframe" d="M-11.39-29.905C-11.39-32.403-9.33-34.429-6.8-34.429L20.87-34.429C23.41-34.429 25.46-32.403 25.46-29.905C25.46-27.406 23.41-25.381 20.87-25.381L-6.8-25.381C-9.33-25.381-11.39-27.406-11.39-29.905Z"/>
   <path class="monochrome-2 multicolor-2:tintColor hierarchical-2:primary SFSymbolsPreviewWireframe" d="M-16.99-51.238C-16.99-53.737-14.94-55.762-12.4-55.762L21.16-55.762C23.7-55.762 25.75-53.737 25.75-51.238C25.75-48.74 23.7-46.714 21.16-46.714L-12.4-46.714C-14.94-46.714-16.99-48.74-16.99-51.238Z"/>
   <path class="monochrome-3 multicolor-3:tintColor hierarchical-3:primary SFSymbolsPreviewWireframe" d="M56.61-11L46.42-20L66.76-20L56.57-11L56.61-11ZM41.93-25.905C45.05-25.905 47.58-28.399 47.58-31.476C47.58-34.553 45.05-37.048 41.93-37.048C38.81-37.048 36.28-34.553 36.28-31.476C36.28-28.399 38.81-25.905 41.93-25.905ZM22.03-76.714C24.57-76.714 26.62-74.689 26.62-72.19L26.62-10.333C26.62-7.835 24.57-5.81 22.03-5.81C19.5-5.81 17.45-7.835 17.45-10.333L17.45-72.19C17.45-74.689 19.5-76.714 22.03-76.714ZM93.57-75.529C95.28-73.685 95.15-70.824 93.28-69.138L73.15-50.987C70.37-48.385 66.68-46.966 62.91-46.901L62.88-46.901L48.66-46.762C48.64-46.762 48.63-46.762 48.61-46.762C44.69-46.762 40.9-48.197 38.06-50.89L19.15-68.79C17.32-70.52 17.26-73.384 19.01-75.186C20.77-76.988 23.67-77.047 25.5-75.316L44.41-57.417C45.47-56.414 46.95-55.814 48.59-55.81L62.77-55.948C64.34-55.979 65.81-56.58 66.84-57.555C66.86-57.581 66.89-57.606 66.92-57.63L87.08-75.814C88.95-77.501 91.86-77.373 93.57-75.529ZM93.9-13.423C95.52-11.505 95.26-8.652 93.31-7.051L82.66 1.719C79.92 4.395 76.25 5.854 72.42 5.857C72.41 5.857 72.41 5.857 72.41 5.857L40.07 6L40.05 6C36.22 6 32.51 4.543 29.72 1.879L19.09-6.859C17.15-8.46 16.89-11.312 18.51-13.231C20.13-15.15 23.03-15.408 24.97-13.807L35.74-4.95C35.85-4.863 35.95-4.771 36.05-4.675C37.11-3.63 38.54-3.05 40.04-3.048C40.04-3.048 40.05-3.048 40.05-3.048L72.39-3.19L72.41-3.19C73.9-3.19 75.26-3.76 76.27-4.777C76.38-4.888 76.49-4.993 76.61-5.092L87.43-13.997C89.38-15.598 92.27-15.341 93.9-13.423ZM90.42-77C92.96-77 95.01-74.975 95.01-72.476L95.01-10.524C95.01-8.025 92.96-6 90.42-6C87.89-6 85.83-8.025 85.83-10.524L85.83-72.476C85.83-74.975 87.89-77 90.42-77ZM71.49-26.143C74.61-26.143 77.14-28.637 77.14-31.714C77.14-34.791 74.61-37.286 71.49-37.286C68.37-37.286 65.84-34.791 65.84-31.714C65.84-28.637 68.37-26.143 71.49-26.143Z"/>
  </g>
  <g id="Regular-S" transform="matrix(1 0 0 1 1405.73 696)">
   <path class="monochrome-0 multicolor-0:tintColor hierarchical-0:primary SFSymbolsPreviewWireframe" d="M-13.98-10.429C-13.98-12.927-11.93-14.952-9.39-14.952L18.33-14.952C20.86-14.952 22.92-12.927 22.92-10.429C22.92-7.93 20.86-5.905 18.33-5.905L-9.39-5.905C-11.93-5.905-13.98-7.93-13.98-10.429Z"/>
   <path class="monochrome-1 multicolor-1:tintColor hierarchical-1:primary SFSymbolsPreviewWireframe" d="M-14.13-29.905C-14.13-32.403-12.07-34.429-9.54-34.429L18.13-34.429C20.67-34.429 22.72-32.403 22.72-29.905C22.72-27.406 20.67-25.381 18.13-25.381L-9.54-25.381C-12.07-25.381-14.13-27.406-14.13-29.905Z"/>
   <path class="monochrome-2 multicolor-2:tintColor hierarchical-2:primary SFSymbolsPreviewWireframe" d="M-19.73-51.238C-19.73-53.737-17.68-55.762-15.14-55.762L18.42-55.762C20.96-55.762 23.01-53.737 23.01-51.238C23.01-48.74 20.96-46.714 18.42-46.714L-15.14-46.714C-17.68-46.714-19.73-48.74-19.73-51.238Z"/>
   <path class="monochrome-3 multicolor-3:tintColor hierarchical-3:primary SFSymbolsPreviewWireframe" d="M53.87-11L43.68-20L64.02-20L53.83-11L53.87-11ZM39.19-25.905C42.31-25.905 44.84-28.399 44.84-31.476C44.84-34.553 42.31-37.048 39.19-37.048C36.07-37.048 33.54-34.553 33.54-31.476C33.54-28.399 36.07-25.905 39.19-25.905ZM19.29-76.714C21.83-76.714 23.88-74.689 23.88-72.19L23.88-10.333C23.88-7.835 21.83-5.81 19.29-5.81C16.76-5.81 14.71-7.835 14.71-10.333L14.71-72.19C14.71-74.689 16.76-76.714 19.29-76.714ZM90.83-75.529C92.54-73.685 92.41-70.824 90.54-69.138L70.41-50.987C67.63-48.385 63.94-46.966 60.17-46.901L60.14-46.901L45.92-46.762C45.9-46.762 45.89-46.762 45.87-46.762C41.95-46.762 38.16-48.197 35.32-50.89L16.41-68.79C14.58-70.52 14.52-73.384 16.27-75.186C18.03-76.988 20.93-77.047 22.76-75.316L41.67-57.417C42.73-56.414 44.21-55.814 45.85-55.81L60.03-55.948C61.6-55.979 63.07-56.58 64.1-57.555C64.12-57.581 64.15-57.606 64.18-57.63L84.34-75.814C86.21-77.501 89.12-77.373 90.83-75.529ZM91.16-13.423C92.78-11.505 92.52-8.652 90.57-7.051L79.92 1.719C77.18 4.395 73.51 5.854 69.68 5.857C69.67 5.857 69.67 5.857 69.67 5.857L37.33 6L37.31 6C33.48 6 29.77 4.543 26.98 1.879L16.35-6.859C14.41-8.46 14.15-11.312 15.77-13.231C17.39-15.15 20.29-15.408 22.23-13.807L33-4.95C33.11-4.863 33.21-4.771 33.31-4.675C34.37-3.63 35.8-3.05 37.3-3.048C37.3-3.048 37.31-3.048 37.31-3.048L69.65-3.19L69.67-3.19C71.16-3.19 72.52-3.76 73.53-4.777C73.64-4.888 73.75-4.993 73.87-5.092L84.69-13.997C86.64-15.598 89.53-15.341 91.16-13.423ZM87.68-77C90.22-77 92.27-74.975 92.27-72.476L92.27-10.524C92.27-8.025 90.22-6 87.68-6C85.15-6 83.09-8.025 83.09-10.524L83.09-72.476C83.09-74.975 85.15-77 87.68-77ZM68.75-26.143C71.87-26.143 74.4-28.637 74.4-31.714C74.4-34.791 71.87-37.286 68.75-37.286C65.63-37.286 63.1-34.791 63.1-31.714C63.1-28.637 65.63-26.143 68.75-26.143Z"/>
  </g>
  <g id="Ultralight-S" transform="matrix(1 0 0 1 517.797 696)">
   <path class="monochrome-0 multicolor-0:tintColor hierarchical-0:primary SFSymbolsPreviewWireframe" d="M-15.05-12.429C-15.05-14.927-12.995-16.952-10.462-16.952L17.261-16.952C19.795-16.952 21.849-14.927 21.849-12.429C21.849-9.93 19.795-7.905 17.261-7.905L-10.462-7.905C-12.995-7.905-15.05-9.93-15.05-12.429Z"/>
   <path class="monochrome-1 multicolor-1:tintColor hierarchical-1:primary SFSymbolsPreviewWireframe" d="M-15.195-31.905C-15.195-34.403-13.14-36.429-10.606-36.429L17.068-36.429C19.602-36.429 21.656-34.403 21.656-31.905C21.656-29.406 19.602-27.381 17.068-27.381L-10.606-27.381C-13.14-27.381-15.195-29.406-15.195-31.905Z"/>
   <path class="monochrome-2 multicolor-2:tintColor hierarchical-2:primary SFSymbolsPreviewWireframe" d="M-20.797-53.238C-20.797-55.737-18.743-57.762-16.209-57.762L17.357-57.762C19.891-57.762 21.946-55.737 21.946-53.238C21.946-50.74 19.891-48.714 17.357-48.714L-16.209-48.714C-18.743-48.714-20.797-50.74-20.797-53.238Z"/>
   <path class="monochrome-3 multicolor-3:tintColor hierarchical-3:primary SFSymbolsPreviewWireframe" d="M52.807-13L42.617-22L62.949-22L52.759-13L52.807-13ZM38.125-27.905C41.246-27.905 43.776-30.399 43.776-33.476C43.776-36.553 41.246-39.048 38.125-39.048C35.004-39.048 32.474-36.553 32.474-33.476C32.474-30.399 35.004-27.905 38.125-27.905ZM18.227-78.714C20.761-78.714 22.815-76.689 22.815-74.19L22.815-12.333C22.815-9.835 20.761-7.81 18.227-7.81C15.693-7.81 13.638-9.835 13.638-12.333L13.638-74.19C13.638-76.689 15.693-78.714 18.227-78.714ZM89.759-77.529C91.469-75.685 91.34-72.824 89.47-71.138L69.341-52.987C66.568-50.385 62.876-48.966 59.104-48.901L59.07-48.901L44.85-48.762C44.835-48.762 44.82-48.762 44.805-48.762C40.887-48.762 37.094-50.197 34.249-52.89L15.339-70.79C13.511-72.52 13.452-75.384 15.207-77.186C16.962-78.988 19.866-79.047 21.694-77.316L40.604-59.417C41.664-58.414 43.141-57.814 44.785-57.81L58.959-57.948C60.537-57.979 61.999-58.58 63.029-59.555C63.056-59.581 63.083-59.606 63.111-59.63L83.277-77.814C85.147-79.501 88.049-79.373 89.759-77.529ZM90.089-15.423C91.713-13.505 91.452-10.652 89.507-9.051L78.852-0.281C76.111 2.395 72.443 3.854 68.611 3.857C68.608 3.857 68.604 3.857 68.6 3.857L36.262 4L36.241 4C32.408 4 28.699 2.543 25.914-0.121L15.288-8.859C13.342-10.46 13.08-13.312 14.703-15.231C16.326-17.15 19.22-17.408 21.166-15.807L31.936-6.95C32.042-6.863 32.144-6.771 32.241-6.675C33.301-5.63 34.734-5.05 36.233-5.048C36.235-5.048 36.238-5.048 36.241-5.048L68.58-5.19L68.6-5.19C70.089-5.19 71.458-5.76 72.463-6.777C72.572-6.888 72.687-6.993 72.808-7.092L83.626-15.997C85.571-17.598 88.465-17.341 90.089-15.423ZM86.615-79C89.149-79 91.203-76.975 91.203-74.476L91.203-12.524C91.203-10.025 89.149-8 86.615-8C84.081-8 82.027-10.025 82.027-12.524L82.027-74.476C82.027-76.975 84.081-79 86.615-79ZM67.683-28.143C70.803-28.143 73.333-30.637 73.333-33.714C73.333-36.791 70.803-39.286 67.683-39.286C64.562-39.286 62.032-36.791 62.032-33.714C62.032-30.637 64.562-28.143 67.683-28.143Z"/>
  </g>
 </g>
</svg>
