<svg width="202" height="258" viewBox="0 0 202 258" fill="none" xmlns="http://www.w3.org/2000/svg">
<path d="M22.4167 11.2085C10.0359 11.2085 0 21.296 0 33.6252V123.292V168.125V235.375C0 247.704 10.0359 257.792 22.4167 257.792H179.333C191.719 257.792 201.75 247.704 201.75 235.375V168.125V123.292V78.4585L134.5 11.2085H22.4167Z" fill="#E5E5E5"/>
<path d="M22.4167 0C10.0359 0 0 10.0875 0 22.4167V112.083V156.917V224.167C0 236.496 10.0359 246.583 22.4167 246.583H179.333C191.719 246.583 201.75 236.496 201.75 224.167V156.917V112.083V67.25L134.5 0H22.4167Z" fill="white"/>
<path d="M201.75 67.25L134.5 0V44.8333C134.5 57.1625 144.531 67.25 156.917 67.25H201.75Z" fill="#E5E5E5"/>
</svg>
